# xmcd
#
# Track frame offsets:
#	150
#	25588
#	50758
#	66620
#	87054
#	107242
#	137981
#	155375
#	167551
#	189576
#	205822
#	239422
#	266102
#	297769
#
# Disc length: 4203 seconds
#
# Revision: 0
# Processed by: cddbd v1.5.2PL0 Copyright (c) Steve Scherf et al.
# Submitted via: audiograbber 1.83.01
#
DISCID=ce10690e
DTITLE=Tom Waits - Live 1999
DYEAR=1999
DGENRE=Folk
TTITLE0=Radio 1
TTITLE1=Radio 2
TTITLE2=Radio 3
TTITLE3=Radio 4
TTITLE4=Radio 5
TTITLE5=Radio 6
TTITLE6=Radio 7
TTITLE7=Radio 8
TTITLE8=Radio 9
TTITLE9=Radio 10
TTITLE10=Radio 11
TTITLE11=Radio 12
TTITLE12=Radio 13
TTITLE13=Radio 14
EXTD=
EXTT0=
EXTT1=
EXTT2=
EXTT3=
EXTT4=
EXTT5=
EXTT6=
EXTT7=
EXTT8=
EXTT9=
EXTT10=
EXTT11=
EXTT12=
EXTT13=
PLAYORDER=
